<?xml version="1.0" encoding="utf-8"?>
<!-- Generator: Adobe Illustrator 14.0.0, SVG Export Plug-In . SVG Version: 6.00 Build 43363)  -->
<!DOCTYPE svg PUBLIC "-//W3C//DTD SVG 1.1//EN" "http://www.w3.org/Graphics/SVG/1.1/DTD/svg11.dtd">
<svg xmlns="http://www.w3.org/2000/svg" xmlns:xlink="http://www.w3.org/1999/xlink" version="1.1" id="COLOR_1" x="0px" y="0px" width="502px" height="421px" viewBox="0 0 502 421" enable-background="new 0 0 502 421" xml:space="preserve">
<g id="Color1">

<path fill="#000000" d="M398.999,245.227l1.383-3.195l0.309-1.799l-0.076-2.192l-1.076-0.795l-1.46-0.326l-0.769-0.164l0.076-4.853l0.538-7.823  l0.384-4.304l-0.613-9.16l-0.614-5.088l-0.691-4.382l-0.152-1.643l1.15-2.741l0.691-1.645l0.537-1.097l-0.385-1.643l-0.229-0.938  l0.077-1.018l0.689-0.786l0.309-0.862l-0.461-1.643l-0.69-0.857l-0.384-0.86l0.689-0.708v-1.643l-0.613-1.406l-0.921-0.934  l-1.229,0.008l-0.612-0.388l0.537-1.176l0.689-0.944v-1.408l-0.92-1.245l-1.915-0.142l-0.92,0.476l-0.612,0.708l-0.382-0.231v-1.407  l-0.918-2.571l-0.917-2.257l-0.766-2.023l-0.457-1.401v-2.42l1.91-1.426l1.528-1.189l0.229-1.879l-0.918-1.317l-1.225-0.688  l-1.68,0.333l0.229-0.861l0.611-0.555l0.382-2.503l-1.756-0.211l0.763-1.337l0.383-1.567l-0.61-2.49l-1.069-2.013l-1.068-0.842  l-1.22,0.332l-0.762,0.791l-0.151,1.64l0.151,1.323l0.687,1.316l0.075,2.339l-1.143-1.154l-1.447-1.616l-1.142-0.062l-0.76,0.323  l-0.305,1.25l0.076,1.479l0.076,1.323l-1.598-0.757l-2.275-1.604l-2.502-0.899l-1.592-0.133l-0.528-1.469l-0.983-1.617l-2.268-0.898  l-1.889-0.902l-1.658-1.526l-2.335-2.133l-0.603-1.695l0.603-1.948l1.354-2.35l0.604-3.734l0.602-2.339l-0.301-2.165l-0.979-2.384  l-0.903-0.989l-0.679-0.605l-0.377-1.697l-0.451-1.307l0.076-1.63l0.826-1.491l0.979-0.876l1.206-0.338l1.13-0.57l1.358-0.731  l0.68-1.414l-0.379-1.62l-1.434-0.818l-1.207-0.048l-1.658,0.042l-1.203,1.038l-0.603,1.022l-0.225,0.548l-0.603,0.169l-1.054-0.283  l-1.502-1.203l-0.901-1.603l-0.975-1.755l-0.301-1.539v-2.321l0.601-1.564l-0.149-1.93l-0.375-1.692l-1.125-1.051l-1.049-0.511  l-0.975,0.182l-0.673,1.256l-0.449,1.249l-0.973,1.109l-0.448,0.167l-0.823,0.177l-0.896-1.056l-1.12-0.278l-0.97,0.568l-0.15,1.624  l0.299,1.15l0.821,1.444l0.075,1.156l-0.075,4.093l-0.448,0.628l-0.746,0.019l-0.597-1.065l-0.373-1.996l-0.446-3.845l-0.521-3.38  l-0.819-2.444l-1.415-1.809L339.9,98.26l-1.114-0.276l-0.298-0.838v-1.078l-0.67-1.058l-0.74-0.67l-0.446-1.449l-0.444-1.448  l-0.371-0.527l-0.668-0.826l-1.11-0.964l-0.963-0.508l-1.261-1.035l-1.108-1.271l-1.257-1.111l-1.553-0.87l-1.992-0.318  l-2.211,0.151l-2.137,0.224l-1.471,0.662l-1.029,0.341l-0.66-0.132v-0.995l0.221-1.309l0.294-2.154l-0.147-2.829l-0.439-4.425  c0,0-1.982-3.601-1.762-3.686c0.219-0.085-1.762-2.611-1.762-2.611l-1.539-1.394l-3.585-2.458l-2.411-0.822l-3.135-0.486  l-4.004,0.235l-2.035,0.69l-0.871,0.186v-0.685l0.508-1.77l0.582-3.526l0.072-2.972l-0.654-2.028l-0.725-0.502l-1.309,0.132  l-1.521,1.358l-1.521,1.28l-0.508,0.781l-0.939-0.037l-0.578-0.583l-0.146-1.057l0.219-1.681l0.361-1.839l-0.724-2.095l-1.084-1.851  l-1.373-1.154l-1.011,0.045l-1.154,1.038l-1.152,1.492l-0.722,1.473l-0.36,1.228l0.146,1.586l0.216,1.28l0.145,1.359l-0.432,0.776  l-0.721,0.561l-0.792,0.033l-1.367-1.231l-1.437-1.378l-0.719-1.029l-1.509,0.367l-0.788,1.774l-0.072,2.424l0.072,2.342  l0.717,2.468l0.432,1.421v0.606l-0.359,0.316l-1.146,0.046l-1.648-0.238l-4.223,0.092l-3.143,0.804l-2.709,1.162l-2.918,2.298  l-2.203,3.021l-1.703,3.602l-0.993,4.098l-0.284,2.794l0.07,2.856l0.354,1.719l0.142,1.274l-3.117-0.424l-1.91-0.312l-1.838-0.088  l-2.824,0.768l-1.762,1.409l-1.48,1.772l-1.336,1.317l-1.267,0.565l-1.405,1.317l-0.843,2.347l-0.069,1.35l-0.843,0.624  l-0.491,0.912l-0.281,1.954l-0.911,0.476l-1.472,0.117l-1.26,1.009l-1.12,1.9l-0.21,1.426l-0.56,3.75l-0.14,2.768l-0.699,2.184  l-0.349,1.129l-0.489,0.311l-0.559-0.136l-0.141-1.191l-0.14-3.131l0.629-2.331l0.489-1.283l0.07-1.047l-0.35-0.812l-0.629-0.206  l-0.907,0.249l-0.908,0.846l-0.627,0.316l-0.837-0.201l-0.627-1.176l-0.627-1.398l-0.626-0.803l-0.627-0.28l-0.905,0.175l-1.182,1.3  l-0.486,1.801l0.069,1.19l0.417,2.223l-0.208,3.134l-0.973,2.184l-0.903,1.214l-1.457,1.375l-0.902,0.32l-0.484,0.012l-0.831-0.872  l-0.693-0.876l-0.969-0.57l-1.522,0.113l-1.451,0.853l-0.691,0.686l0.069,1.334l0.898,0.647l1.59,1.225l1.385,0.338l0.969,0.721  l0.624,1.027l0.483,1.029l-0.275,1.42l-0.624,0.609l-0.139,1.044l0.069,1.188l-0.692,0.907l-0.9,0.539l-0.276,1.046l-0.276,1.269  l-0.485,1.942l0.139,2.152l0.484,2.443l0.969,2.658l0.97,1.469v2.156l-0.97,1.429l-2.421,2.342l-2.694,1.601l-2,1.069l-0.62,1.418  l-0.139,0.892l-0.827,0.679l-1.789,0.248l-1.926,0.619l-1.717,1.505l-0.618,0.526l-0.412,0.08l-0.343-0.366v-0.518l0.205-1.113  v-1.258l-0.479-0.881l-1.165,0.017l-0.96,0.753l-0.959,1.271l-0.343,0.818l-0.411-0.216l-0.068-0.887l0.068-1.183l0.822-1.121  l0.068-1.553l-0.547-1.914l-1.027-0.205l-1.231,0.684l-1.094,2.084l-0.614,2.003l0.41,1.692l0.751,1.467l-1.298-0.13l-0.136,1.257  l0.409,1.397l0.82,1.098l-2.117,0.247l-1.024,0.972l-0.408,1.112l0.272,1.177l1.228,1.241l1.093,0.799l0.478,0.143v2.658  l-1.093,3.26l-1.092,3.478l-0.682,2.439l-1.159-1.023l-1.975,0.162l-0.681,1.331v1.548l0.748,1.543v0.811l-1.565,0.156l-1.088,0.964  l-0.068,1.253l0.544,1.838l-0.816,0.962l-0.407,1.033l-0.068,1.693l0.883,1.176l-0.068,1.4l-0.476,0.737l-0.067,1.327l0.611,1.692  l1.292,2.208l0.341,1.326l-0.545,2.211l-0.748,5.967l-0.204,6.629l-0.272,8.543l0.476,7.296l0.136,3.537l-0.612,0.806l-1.155,0.062  l-1.086,0.726l-0.204,2.354l0.951,3.026l0.815,1.998l2.107,5.108l1.089,1.933l0.137,0.959l-0.75,0.063l-0.816-0.454l-0.544-0.671  l-0.612-0.598l-0.611,0.065l-0.476,1.539l0.272,1.403l1.019,1.854l1.292,1.42l1.906,0.397l1.022,0.459l1.023,0.976l1.023,0.017  l1.023,0.164l0.82,1.047l0.888,0.826l1.573,0.396l0.957,0.163l0.206,0.743l-0.48,1.026l-0.273,0.882l-0.889,0.059l-1.162-0.833  l-0.82-0.604l-0.751-0.604l-0.547,0.139l-0.34,1.396l0.204,1.701l0.614,2.004l0.479,1.264l-0.683,1.021l-0.887,0.498l-0.887,1.68  v1.771l0.341,0.893l-0.614,0.431l-1.499-0.179l-1.09-0.393l-0.681-0.898l-0.476-0.155l-0.408,0.729l0.068,1.842l0.816,1.492  l1.362,0.914l0.886,0.387l0.545,0.896l0.341,1.41l0.887,0.609l0.409,0.674l1.091,0.395l0.82,0.313l0.137,0.668l-0.547,0.726  l-0.204,1.178l0.068,1.994l1.229,1.211l1.23,0.475l2.19-0.76l1.301-1.225l0.823-0.498l0.548,0.234l0.068,0.889l0.687,0.313  l1.784,0.044l1.236-0.711l1.581-0.48l1.928-0.25h3.032l2.692,1.477l2.074,2.13l2.284,2.213l0.692,0.985l0.554,1.129l-0.208,0.517  l-0.899,0.125l-1.87-0.569l-2.627-0.218l-3.451,0.726l-3.169,1.918l-1.995,2.686l-0.618,1.982v1.926l0.618,2.018l1.376,0.635  l1.583-0.102l2.067-1.496l2.346-1.938l2.072-1.574l1.729-0.248l1.73,0.346l-1.454,1.297l-1.176,1.526l-0.207,1.554l0.207,1.566  l1.245,1.004l1.315-0.109l1.316-0.703l0.971-0.268l1.665-0.102l1.389,1.085l1.529,2.355l1.67,2.287l2.368,4.772l-0.906-0.328  l-2.019,0.083l-1.113,0.856l-0.208,1.037l0.069,1.416l1.044,2.42l0.904,2.492l1.113,3.318l0.349,3.367l-0.418,2.371l-0.696,1.239  l-0.348,0.81l-1.739-0.291l0.485-0.95l0.141-2.006l-0.349-0.833l-1.251-1.09l-0.973-0.407l-0.972-0.334l-0.903-0.033l-1.526,0.39  l-1.178,1.147l-0.415,1.546l-0.069,2.006l0.692,2.405l1.387,1.765l1.526,0.879l1.388,0.576l2.363-0.279l1.811-0.821l1.74-1.2  l1.813-1.421l1.326,1.319l0.769,0.777l1.188,0.047l0.769-0.494l0.49-0.729l0.42,1.585l0.28,2.03l1.05,0.938l1.19,0.496l1.893,0.15  l0.141,1.727l0.842,1.83l1.334,1.478l1.194,0.649l2.04,0.159l1.196-0.624l1.057-1.23l0.775-1.543l0.281-1.639l0.213-2.242  l1.128-2.131l1.624-1.139l1.413-0.546l1.768,0.144l1.841,0.974l1.416,1.407l1.064,1.547l0.426,1.599l-0.07,2.18l-1.136,1.533  l-1.487,0.916l-1.346,0.545l-6.077-0.104l-0.563,0.804l0.352,0.914l1.129,1.174l2.543,1.762l1.909,1.059l2.124,0.693l1.771,0.075  l0.924-0.186l0.71-0.872l0.71-0.045l0.283,2.422l0.64,3.792l1.422,4.281l2.134,3.793l2.137,2.363l2.427,2.002l3.5,1.529l2.29,0.488  l3.082,0.227l3.591-0.81l2.949-1.522l1.873-1.58l1.079-1.92l0.867-0.416l0.938,0.045l1.153,0.51l1.013,1.793l1.592,1.824l2.39,1.561  l3.336,1.15l1.233,0.365l3.199,0.154l3.423-0.441l3.355-1.746l2.192-1.881l2.415-3.174l1.686-3.517l0.881-3.174l0.587-3.264  l0.293-2.437l0.808,0.035l0.807,0.8l1.324,0.594l1.47,0.219l2.356-0.818l1.842-0.842l2.065-1.062l1.403-1.245l0.591-0.819  l-0.074-0.849l-0.813-0.418l-6.119-0.407l-1.84-0.92l-1.322-1.357l-0.661-0.945l-0.44-0.938l0.073-1.604l0.808-2.034l1.396-1.323  l1.396-1.171l1.914-0.616l2.359,0.321l1.402,1.128l1.181,1.352l0.665,1.486l0.443,2.32l0.369,2.089l1.109,2.044l1.555,1.295  l2.295,0.02l1.56-0.782l1.483-1.709l0.595-1.898l0.147-1.074l1.486-0.092l1.786-0.16l1.19-1.187l0.299-1.3v-1.312l0.074-0.845  l0.744,0.185l0.598,0.871l1.117,0.353l0.971-0.271l0.747-0.976l0.672-0.746l1.271,0.667l1.869,1.465l2.246,1.324l1.499,0.522  l2.101,0.315l2.254-0.686l1.729-1.559l1.054-2.595l0.149-2.862l-0.526-1.338l-1.203-1.283l-1.504-0.676l-1.428-0.054l-1.501,0.41  l-1.351,1.42l-0.749,1.287l0.149,1.553l0.6,0.95l-1.873,0.16l-0.898-0.884l-0.822-1.811v-3.709l0.523-2.299l1.123-3.207l0.749-2.216  l0.974-1.592l0.45-1.377v-1.006l-0.675-1.261l-0.898-0.647l-1.947-0.063l-0.822,0.669l-0.374-0.167l-0.074-0.697l0.599-0.83  l1.496-2.58l2.623-3.785l1.5-1.732l0.977-1.054l2.104-0.17l1.202,0.811l1.431,0.586l1.809,0.133l1.13-0.897v-1.163l0.075-1.55  l-0.527-0.946l-1.055-1.114l-0.828-0.723l-0.753-0.72l1.656-0.264l2.262,0.452l2.188,1.147l1.133,1.274l1.967,1.844l2.347,1.158  l2.123-0.093l1.214-0.819l0.075-3.656l-1.139-2.211l-1.668-2.379l-1.817-1.448l-2.799-1.084l-2.794-0.696l-3.619-0.328l-1.731,0.498  l-0.602,0.062l-0.15-0.854l1.278-1.518l1.507-1.744l3.016-2.949l2.869-1.019l4.541-0.202l3.108,0.776l1.976,0.903l1.672,0.041  l0.609-0.688l-0.078-0.938l1.143,0.494l1.219,1.2l1.904,0.904l1.525,0.271l1.223-0.595l0.992-0.757l0.229-1.166v-1.795l-0.61-1.029  l-0.384-0.635l0.765-0.528l1.375-0.358l1.455-1.217l0.611-1.55l0.613-1.315l1.302-0.285l1.457-0.985l0.768-1.235v-2.189  l-0.538-0.637l-1.072,0.682l-1.148,0.837l-2.375,0.106l0.23-1.871l-0.385-2.353l-1.146-1.428l-0.917-0.485l-0.306-0.632l0.306-1.165  l0.917-1.779l0.306-1.791l-0.381-1.883l-0.459-0.476l-0.688,0.223l-1.984,1.371l-0.992,0.529l-0.84-0.017l-0.306-1.174l-0.381-0.554  v-1.093l1.983-0.199l1.603-0.833l1.299-0.839l0.611-0.379l2.37-0.354l0.996-1.078l1.609-0.289l1.994-0.986l1.305-1.389l0.538-1.871  l0.076-1.801l-0.229-0.863l-0.922-0.014l-0.845,0.93l-0.69,0.615l-0.996,0.063l-0.077-1.331l1.765-3.419L398.999,245.227z   M386.596,189.053l0.077-1.951l0.916-0.863l0.763-0.861l0.459-0.081l0.152,1.327l-0.305,2.578l-0.383,1.25l0.076,0.938l0.307,0.858  l0.074,1.171l-0.609,0.704l-0.766-0.31l-1.219-1.246l-0.459-0.623l-0.152-1.013l0.457-0.86L386.596,189.053z M385.527,176.265  l0.076,2.34l-1.065,1.723l-1.144,0.942l-1.828,0.167l-1.293-0.85l-0.379-0.854l0.455-0.782l0.989,0.462l1.446-0.166l1.294-1.022  l0.381-1.485l-0.761-1.007l-0.84-0.462l1.601-0.013L385.527,176.265z M369.812,158.438l2.951,0.586l3.106,1.595l2.505,1.84  l2.432,2.7l2.131,2.472l1.602,2.246l0.15,1.402l-1.902,0.017l-0.686-0.306l-1.447,0.246l-1.898,0.485l-0.988,0.631l-0.228-1.789  l-0.455-1.552l-1.289-1.389l-0.835-0.769l-1.895-0.059l-0.682,0.706v2.021l0.53,2.017l0.53,1.006l-1.363-0.066l-0.832,0.861  l-0.076,2.176l-1.438,0.4l-1.359,0.553l-0.83,0.783l-1.133,1.404l-0.453,0.547l-0.829-0.228l-0.377-1.471l-0.905-2.553l-1.729-3.629  l-1.808-3.703l-0.9-1.695l-0.525-0.768l0.299-0.933l1.354-0.092l1.581-0.095l0.753-0.163l0.301-0.623l-0.603-0.924l-0.678-0.457  l-0.828,0.087l0.678-0.783l1.203-0.556l0.755-0.475l0.149-0.932l0.377-0.625l1.207-0.325l2.264-0.261L369.812,158.438z   M371.174,192.688l0.908,1.785l0.529,0.542l-0.379,1.322l-0.453,1.633l-0.529,1.322l-0.757-0.077l-0.152-2.485l-0.528-3.029  l-0.756-4.424l-0.529-1.396v-1.242l0.832-0.858l1.135-0.239l1.664-0.085l0.074,0.932l-0.303,0.623l-1.134,1.326l-0.228,2.098  L371.174,192.688z M351.012,121.812l1.049-0.874l0.674-0.092l0.898,0.752l0.899,1.372l0.749,1.453l0.525,1.382l0.824,0.911  l0.826,0.292l0.6,1.148l-0.074,1.008l-0.148,1.552l0.074,1.469l0.676,1.303l0.676,0.839l0.452,0.921l-0.228,1.244l-0.9,0.713  l-1.952-0.429l-1.726-1.438l-1.725-2.055l-1.123-1.756l-0.522-1.38l-0.226-2.391l-0.822-1.451l-0.225-2.622L351.012,121.812z   M344.74,133.677l1.49,1.514l3.285,3.183l6.141,5.073l5.482,4.481l3.088,2.202l2.563,1.282l-6.253,0.321l-3.08,1.515l-3.076,2.672  l-1.273-1.376l-1.197-2.456l-1.721-2.216l-1.42-1.447l-2.838-3.66l-2.088-2.126l-0.968-1.14l0.745-0.321l0.818-0.708v-1.62  l-0.597-0.683l-1.713-0.277l-1.265-0.902l-0.743-0.756l0.147-1.621l1.266-0.718l1.787-0.497L344.74,133.677z M335.371,121.087  l1.039-1.563l0.443-0.78l0.668,0.139l0.596,0.293l0.892,0.211l0.669,1.217l1.115,0.976l1.488,0.891l1.043,0.593l-0.299,5.789  l-1.713,0.883l-2.082,0.659l-1.635,1.11l-1.187,1.332l-0.742,0.553l-0.521,0.472l-0.963-0.212l-1.481-1.662l-2.591-2.254  l-2.586-1.866l-2.508-1.635l-1.474-1.348l4.942-0.185l2.734-0.905l2.664-1.136L335.371,121.087z M315.533,96.294l2.201-2.975  l1.697,0.638l1.107,0.887l-0.296,1.161l-0.812,0.792l-1.992,0.751l-1.476,0.735l-1.842,1.128l-0.811,1.174l-0.146,1.077l0.661,0.748  l1.688-1.507c0,0,1.103-0.877,1.324-0.884c0.22-0.007,0.44,0.522,0.44,0.522l0.516,0.751l1.473-0.123l1.547-0.585l1.697-0.206  l1.326,0.574l1.253-0.265l2.213-0.14l1.994,0.327l1.258,1.116l0.592,2.135l0.148,2.224l0.443,1.218l1.035,0.664l0.371,2.143  l-0.813,2.558l-1.998,3.584l-2.07,1.893l-1.919,0.506l-1.105-0.511l-0.959-0.745l-0.517-1.291l-0.146-1.223l0.515-1.163l0.222-1.54  l-0.516-1.904l-0.811-1.895l-1.398-0.96l-1.691-0.721l-1.543-0.723l-0.515-1.365v-1.071l0.44-1.085l-0.147-1.909l-0.881-1.047  l-0.733-0.514l-1.027-0.43l-0.365-0.907L315.533,96.294z M315.167,109.692l0.586-0.015l0.66,0.594l-0.073,1.992l-0.367,1.463  l-0.438,1.159l-1.175,1.788l-1.465,0.723l-1.684,0.499l-1.535,0.113l-0.877-0.208l0.146-0.614l0.365-0.467l0.512-1.006l1.023-1.171  l0.512-1.999l0.146-1.074l0.73-0.401l1.025-0.179l0.807-0.633L315.167,109.692z M313.334,103.317v1.988l-1.464,0.805l-1.463,0.804  l-1.39,0.114l-0.293-0.833l0.438-0.622l0.585-0.399l1.17-1.178l1.023-1.175l0.951-0.026L313.334,103.317z M303.546,87.275  l0.511-1.009l1.385-2.181l0.291-1.536l-0.363-1.742l-0.729-1.653l-1.386-0.943l-1.237-0.718l-1.164,0.193l-1.891,0.143l-1.162,0.041  l-1.379-0.788l-0.438-1.202l0.22-1.834l0.581-1.695l2.396-1.916l2.691-0.939l4.007-0.075l2.188,0.91l2.926,2.489l1.464,2.469v2.064  l-0.513,0.629l-1.244,1.037l-0.658,1.169v1.375l0.22,1.138l0.292,0.296l0.514,0.823l0.22,1.215l-1.024,0.951l-0.293,1.155  l-0.146,0.922l0.438,0.673l0.511,0.748l-0.291,0.391l-0.22,1.611l0.365,1.211v1.528l-1.683,2.496l-2.556,3.052l-3.134,4.056  l-2.33,1.893l-2.107,0.896l-1.523,0.422l-0.727-0.285l-0.436-0.673l-0.291-2.579l0.291-3.888l0.941-3.529l1.382-2.707l0.726-0.783  l0.945-0.639l1.381-0.044l1.457-0.732l0.729-1.09v-1.677L303.546,87.275z M303.982,110.595l-0.582,1.159l-1.676,1.11l-2.035-0.101  l-0.654-0.212l-0.727-0.514l-0.219-0.451l0.727,0.057l1.526,0.19l0.873-0.709l1.528-0.192L303.982,110.595z M280.747,86.731  l1.008-0.716l1.151-1.175l0.792-1.164l0.864-0.257l0.647,0.661l1.082,0.874l0.649,0.206l1.011-0.034l0.722-0.556l0.868-0.788  l0.938-0.411l0.867,0.426l0.219,0.981l1.084,0.799l0.58,0.666l1.231,0.795l0.508,0.364l-0.146,0.918l-1.596,2.788l-0.939,3.83  L292,99.051l-0.217,2.058v1.824l0.506,2.114l-0.072,1.294l-0.796,1.01l-0.869,1.39l-0.071,1.598l-0.071,2.129l-0.507,0.848  l-0.072,0.761l-0.361,0.465l-0.434-0.293l-0.506-0.746l-0.577-0.593l-0.65-0.287l-0.794,0.172l-0.648,0.851l-0.504,0.62  l-0.434,0.314l-0.288-0.599l-0.504-1.049l-0.217-1.511v-2.351l-0.36-1.203l-0.576-0.667l-0.504-0.441l-0.216-0.98l0.072-1.442  l0.433-0.391v-3.941l-0.576-3.242l-0.504-3.622l-0.719-2.327l-1.15-2.008l-0.071-1.285L280.747,86.731z M263.146,75.627l2.137-2.718  l2.64-1.683l1.786-0.52l3.218-0.121l1.648,0.316l2.438,2.028l1.219,1.318l0.072,1.435l-0.287,1.903l-0.574,0.626l-1.362,0.502  l-1.722-0.09l-0.858-0.348l-2.075,0.451l-1.787,2.254l-0.644,2.363l0.214,1.729l0.643,1.489l1.073,1.098l0.071,0.904l-0.357,1.295  v0.983l0.5,0.89l1.146,0.871l2.435,0.151l1.147,1.552l1.074,1.556l1.222,2.537l0.358,2.109l0.145,2.116l0.07,3.329l-0.646,1.229  l-0.646,0.472l-1.723-0.029l-2.365-1.524l-3.291-3.157l-2.928-3.01l-2.211-2.877l-0.783-2.465l0.285-1.668v-0.98l-0.356-0.592  l0.071-0.831l0.643-0.624l0.143-1.136l-0.072-0.827l-0.641-0.507l-0.712-0.655l-0.071-1.279l0.854-1.235l0.354-0.691v-1.734  l-0.926-1.099l-0.712-1.031l-0.569-0.356L262.148,78L263.146,75.627z M276.366,112.146l-1.507,1.325l-2.147,0.281l-1.073-0.653  l-0.931-1.713l1.86,0.631l1.719,0.258L276.366,112.146z M262.078,104.376l0.711-0.095l1.211,1.021l0.784,0.808l1.426,1.47  l-1.212,0.485l-1.141-0.271l-1.496-0.637l-0.711-0.81l-0.143-1.653L262.078,104.376z M261.011,111.864l1.423,0.566l0.854,0.506  l0.354,1.8l1.069,2.16l0.927,1.109l0.213,0.749l-0.354,0.084l-1.142,0.404l-2.277-0.096l-1.564-1.017l-1.279-2.002l-0.64-2.619  l-0.071-1.654l0.641-0.695l0.995,0.05L261.011,111.864z M242.831,110.838l0.844-0.847l0.705-1.444l0.211-2.93l0.775-1.521  l1.198-1.084l2.683-0.302l1.695,0.326l1.344-0.263l1.062-0.857l-0.07-1.426l-1.344-1.389l-2.052-0.99l-2.188-0.535l-0.917-0.798  l-0.424-0.512l0.071-1.127l0.917-0.854l1.341-0.492l1.412-0.194l0.849,0.273l1.415,0.482l1.273-0.566l0.639-0.47l0.778-0.025  l1.134,1.018l2.129,2.342l0.924,1.177l0.427,1.268l-0.07,0.905l-0.782,0.55l-1.703,1.781l-0.496,0.541l0.07,1.277l0.567,1.338  l-0.071,1.583l-0.638,0.92l-2.41,1.043l-1.558,1.244l-1.202,1.76l-0.283,0.908l-0.283,1.585l0.283,1.27l0.565,1.037v1.653  l-0.777,0.921l-0.99,1l-1.271,0.03l-1.341-0.494l-1.763-1.233l-1.62-2.21l-1.126-2.295l-0.212-1.718L242.831,110.838z   M234.407,124.667l1.261-1.151l0.841-0.991l0.561-0.986l1.053-0.025l0.772,0.132l0.772,0.581l0.632,1.109l2.743,1.886l2.959,1.284  l5.72,0.25l-3.11,2.245l-3.314,2.62l-2.747,2.529l-1.406,1.227l-0.844,0.016l-0.913-0.881l-1.474-1.692l-1.193-0.575l-1.401-0.27  l-1.471-0.493l-0.7-0.809l-0.14-5.227L234.407,124.667z M218.234,136.268l0.694-0.981l0.278-1.271v-1.861l-0.07-1.562l0.694-0.759  l0.903-0.541l0.694-0.834l0.348-0.827l0.349-1.422l0.765-1.359l0.766-0.911l0.835-0.02l1.045,0.946l0.558,1.33l0.139,1.489  l-0.348,2.021l-0.558,0.757l-0.069,1.418l-0.07,1.717l-0.975,1.659l-2.227,2.428l-1.46,1.442l-0.972,0.688l-1.111,0.02l-0.624-0.733  l-0.139-1.559L218.234,136.268z M213.662,152.185l4.156-3.409l3.61-2.961l4.037-3.721l3.347-3.343l2.306-2.731l1.188-0.322  l1.61,0.343l1.821,0.638l-0.07,1.422l-0.491,0.981l-1.191,0.844l-1.538,0.252l-0.771,0.612l0.071,1.418l0.488,0.589l0.979,0.507  l-0.909,1.509l-2.726,3.107l-3,3.479l-1.604,2.409l-1.113,2.55l-0.835,0.906l-0.695,0.083l-0.975-0.881l-1.944-1.388l-2.567-1.378  l-5.744,0.008L213.662,152.185z M197.271,168.105l3.431-3.589l3.644-2.931l4.065-1.162l3.522-0.192l1.937,0.422l0.416,1.556  l0.899,0.659l1.108,0.433l-0.97,0.457l-0.623,0.677l0.139,1.113l0.484-0.154l1.454,0.356l1.805,0.65l-1.526,2.025l-1.524,3.733  l-2.008,5.145l-1.521,3.131l-1.244-1.7l-1.036-0.809l-1.242-0.584l-1.311-0.806l-0.344-1.778l-0.483-0.737l-1.239-0.213l0.688-1.637  l0.207-2.3l-0.276-0.961l-1.377-0.431l-1.032,0.38l-1.237,1.568l-0.412,1.559l-0.344,1.41l-0.824,0.155l-1.854-0.724l-1.851-0.058  l-0.892,0.304l-0.89,0.008l-0.205-0.738L197.271,168.105z M207.514,189.144l-0.965-1.554l-0.413-0.443l0.137-0.816l0.621-0.077  l1.447,0.29l1.036,0.588l0.207,1.187l-0.621,2.304l-0.622,2.673l-0.551,3.191l-0.346,2.969l-1.033-1.557l-0.413-1.334l-0.139-1.409  l0.759-0.891l0.551-1.262l0.482-1.412L207.514,189.144z M194.052,177.522l0.616-0.818l0.958-0.303l0.822,0.289l-0.754,0.819  l-0.685,0.523l0.274,1.18l0.273,0.368l0.686,0.587l1.165,0.289l0.96-0.081l0.822-0.227l-0.206,1.111l-0.343,0.668l-0.96,0.524  l-1.645-0.212l-0.822-0.735l-1.163-1.544l-0.068-1.551L194.052,177.522z M190.976,186.773l0.478-0.667l1.094,1.176l0.546,0.958  l0.137,1.92l0.411,0.146l0.478,1.107l-0.068,1.109l-0.821,1.258l-1.094,0.742l-0.751,0.001l-0.273-0.811v-1.034l0.341-0.665  l0.137-1.847l-0.478-0.81l-0.137-1.55V186.773z M187.292,229.27l0.273-6.342l1.159-6.484l1.023-2.875l1.434-0.954l0.683-0.072  l1.504-1.399l1.368-2.213l1.507-1.846l1.919-1.329l1.234-0.295l0.48-1.036l0.48-0.37l0.138-0.814l0.137-1.777l1.306-0.149  l1.444,1.629l1.169,1.78l0.689,1.928l0.481,1.261l-0.137,1.334l-1.103,0.072l-0.963-0.372l-0.825-0.52l-1.513,0.071l-2.951,1.401  l-2.741,2.951l-3.079,4.939l-2.595,4.343L187.292,229.27z M201.8,248.34l-2.335,1.004l-1.852,2.344l-0.549,1.619l0.068,1.035  l-0.753,0.211l-0.959-1.049l-2.053-3.797l-2.528-6.68l-1.229-4.441l0.068-4.943l1.98-5.891l3.214-5.445l3.495-3.385l2.401-1.914  l1.306,1.19l1.307,0.377l0.344,0.966l-0.275,5.186l0.275,12.301l1.239,8.019l0.551,4.679l-1.652-0.912L201.8,248.34z   M215.531,284.359l-4.704-5.902l-4.348-6.77l-2.271-4.492l-0.758-3.422l0.207-3.332l1.515-2.347l1.859-1.676l0.896,3.426  l2.692,8.063l3.525,8.688l5.408,12.025L215.531,284.359z M261.296,339.381l-0.427-0.242l-0.926-1.844l-2.06-2.412l-1.985-1.43  l-1.914-1.273l-1.84-0.819l-0.708,0.049l0.07-1.574l0.354-0.963l1.203,0.269l1.134,0.718l2.409,1.441l3.551,1.41l2.418,0.993  l3.062,1.097L261.296,339.381z M280.459,364.67l-1.438,1.373l-2.226,2.017l-1.22,0.397l-1.792-0.162l-2.647-1.937l-2.145-2.215  l-1.571-2.562l-0.713-3.729l0.214-3.765l1.499-2.351l0.785-1.401l0.071-2.035l-1-2.08l-1-0.721l-0.998-0.342l-1.141,0.405l-0.57-0.1  v-0.979l0.783-0.949l1.355-1.454l0.927-0.793l2.716-0.271l3.506,0.593l2.438,0.928l1.507,1.801l1.796,2.345l0.791,1.774l0.071,0.911  l-0.935,1.175l-0.573,0.883l-0.218,1.582l0.218,1.75l0.286,1.148l-0.646,1.031l-0.431,1.041l0.071,1.972l0.646,1.165l1.078,1.033  l0.718,0.41l0.072,0.911L280.459,364.67z M310.188,347.549l-0.512-0.021l-0.877-0.417l-0.512-0.173c0,0-1.241,0.406-1.46,0.396  c-0.22-0.009-1.24,1.399-1.24,1.399l-0.364,1.205l0.656,2.773l1.312,1.582l0.731,1.787l0.292,2.532l-0.292,2.964l-0.877,2.633  l-2.553,2.629l-2.259,2.259l-1.674,0.836l-1.744-0.157l-2.25-1.629l-1.45-1.589l-1.015-0.96l-0.291-1.458v-1.062l0.58-0.584  l1.016-0.183l0.726-1.108l0.435-1.121l-0.435-2.149l-0.437-0.856l-0.508-0.479l0.219-1.208l0.361-0.82l0.072-1.365l-0.361-1.462  l-0.799-1.022l-0.578-0.709l-0.146-1.45l1.304-2.306l1.742-1.679l1.887-1.372l2.473-0.662l2.11-0.07l3.136,0.275l1.314,0.814  l1.096,0.885l0.805,1.102l0.438,1.088L310.188,347.549z M321.631,334.297l-2.795,1.199l-2.716,2.654l-2.42,3.425l-2.122-2.452  l-2.27-2.453v-0.535l4.024-0.996l5.062-1.572l3.088-1.343l1.326-0.72l0.736,0.026l0.146,1.386l0.146,0.771L321.631,334.297z   M337.467,299.97c-13.182,16.717-30.968,26.643-50.376,25.966c-39.178-1.363-70.305-45.606-70.305-98.844l0,0  c0-0.001,0-0.001,0-0.001c0-53.237,31.127-97.043,70.305-97.861c19.408-0.405,37.194,9.77,50.376,26.671  c14.032,17.991,22.848,43.605,22.848,72.195C360.314,256.685,351.499,282.175,337.467,299.97z M374.884,267.812l-1.741,4.479  l-2.877,5.229l-4.38,5.65l-4.521,5.246l-3.531,3.245l4.209-8.19l3.691-8.297l3.096-7.936l1.891-6.182l0.228-1.705l0.528-0.382  l1.135,1.185l1.742,2.361l0.606,2.575L374.884,267.812z M390.339,240.518l-1.452,5.215l-1.908,4.816l-1.679,4.112l-1.296,1.931  l-1.371,0.916l-0.607-1.646l-1.143-2.51l-1.672-1.658l-1.977-0.493l-2.426,0.2l-1.895,0.675l0.604-2.714l0.758-6.055l0.76-6.371  l0.379-7.697l-0.455-6.771l-0.076-1.943l0.379-1.088l1.366-0.071l0.987-0.929l1.062-0.074l1.596,0.785l2.513,2.039l3.505,4.387  l2.749,5.404l0.993,3.211l0.306,2.346V240.518z M392.71,230.691l-0.688-2.584l-1.605-4.463l-2.75-4.855l-3.509-4.771l-2.97-3.282  l-2.508-1.407l-1.672-0.392l-1.365-0.158l-1.439,0.62l-0.757,0.621l-0.53-0.312l-0.076-1.322l0.303-1.477l0.834-1.865l1.287-2.022  l0.912-1.323l1.062-0.234l0.911-0.078l0.229,0.857l0.151,1.401l0.606,0.935l1.217,1.013l1.218,0.39l1.293,1.171l1.678,1.094  l1.296,2.108l1.756,2.268l1.297,0.471l1.146,0.941l1.376,1.957l0.688,2.582l0.459,2.346l0.767,9.621L392.71,230.691z"/>
<path fill="#000000" d="M337.467,299.97c14.032-17.795,22.848-43.285,22.848-71.874C360.313,256.685,351.499,282.175,337.467,299.97z"/>
<path fill="#000000" d="M287.091,129.231c19.408-0.405,37.194,9.769,50.376,26.67C324.285,139,306.499,128.825,287.091,129.231  c-39.178,0.817-70.305,44.623-70.305,97.86c0,0,0,0,0,0.001C216.786,173.855,247.913,130.049,287.091,129.231z"/>
</g><g>
<polygon fill="none" points="262.361,107.157 263.857,107.794 264.998,108.065 266.21,107.58 264.784,106.11 264,105.302   262.789,104.281 262.078,104.376 261.508,104.694 261.65,106.347 "/>
<polygon fill="none" points="258.523,111.854 258.595,113.508 259.234,116.127 260.514,118.129 262.078,119.146 264.355,119.242   265.497,118.838 265.852,118.754 265.639,118.005 264.712,116.896 263.643,114.736 263.288,112.936 262.434,112.43 261.011,111.864   260.159,111.209 259.164,111.159 "/>
<polygon fill="none" points="243.888,116.507 245.508,118.717 247.271,119.95 248.612,120.444 249.883,120.414 250.873,119.414   251.65,118.493 251.65,116.84 251.085,115.803 250.802,114.533 251.085,112.948 251.368,112.04 252.57,110.28 254.128,109.036   256.538,107.993 257.176,107.073 257.247,105.49 256.68,104.152 256.609,102.875 257.105,102.334 258.809,100.553 259.591,100.003   259.661,99.098 259.234,97.83 258.311,96.653 256.182,94.311 255.048,93.293 254.27,93.318 253.631,93.788 252.357,94.354   250.943,93.872 250.094,93.599 248.682,93.793 247.341,94.285 246.424,95.139 246.353,96.266 246.777,96.778 247.694,97.576   249.882,98.111 251.934,99.101 253.277,100.49 253.348,101.916 252.286,102.773 250.942,103.036 249.247,102.71 246.564,103.012   245.366,104.096 244.591,105.617 244.38,108.547 243.675,109.991 242.831,110.838 242.55,112.494 242.762,114.212 "/>
<polygon fill="none" points="272.568,112.017 270.708,111.386 271.639,113.099 272.712,113.752 274.859,113.471 276.366,112.146   274.287,112.275 "/>
<polygon fill="none" points="218.442,139.836 219.553,139.816 220.525,139.128 221.985,137.686 224.212,135.258 225.187,133.599   225.257,131.882 225.326,130.464 225.884,129.707 226.232,127.686 226.093,126.197 225.535,124.867 224.49,123.921 223.655,123.941   222.889,124.852 222.124,126.211 221.775,127.633 221.427,128.46 220.733,129.294 219.83,129.835 219.136,130.594 219.206,132.155   219.206,134.016 218.928,135.287 218.234,136.268 217.679,137.544 217.818,139.103 "/>
<polygon fill="none" points="195.9,173.072 196.792,172.768 198.643,172.826 200.497,173.55 201.321,173.395 201.665,171.985   202.077,170.426 203.314,168.858 204.346,168.478 205.723,168.909 205.999,169.87 205.792,172.17 205.104,173.807 206.343,174.02   206.826,174.757 207.17,176.535 208.481,177.341 209.723,177.925 210.759,178.734 212.003,180.434 213.524,177.303 215.532,172.158   217.056,168.425 218.582,166.4 216.777,165.75 215.323,165.394 214.839,165.548 214.7,164.435 215.323,163.758 216.293,163.301   215.185,162.868 214.286,162.209 213.87,160.653 211.933,160.231 208.411,160.423 204.346,161.585 200.702,164.516 197.271,168.105   194.805,172.342 195.01,173.08 "/>
<polygon fill="none" points="219.413,155.078 221.357,156.466 222.332,157.347 223.027,157.264 223.862,156.358 224.975,153.808   226.579,151.399 229.579,147.92 232.305,144.813 233.214,143.304 232.235,142.797 231.747,142.208 231.676,140.79 232.447,140.178   233.985,139.926 235.176,139.082 235.667,138.101 235.737,136.679 233.916,136.041 232.306,135.698 231.118,136.02 228.812,138.751   225.465,142.094 221.428,145.815 217.818,148.776 213.662,152.185 211.102,153.708 216.846,153.7 "/>
<polygon fill="none" points="233.848,131.482 235.319,131.975 236.72,132.245 237.913,132.82 239.387,134.512 240.3,135.393   241.144,135.377 242.55,134.15 245.297,131.621 248.611,129.001 251.721,126.756 246.001,126.506 243.042,125.222 240.299,123.336   239.667,122.227 238.895,121.646 238.123,121.514 237.07,121.539 236.509,122.525 235.668,123.516 234.407,124.667 233.008,125.446   233.148,130.673 "/>
<polygon fill="none" points="263.005,79.702 263.717,80.733 264.643,81.832 264.643,83.566 264.288,84.257 263.434,85.492   263.505,86.771 264.217,87.426 264.857,87.933 264.93,88.76 264.787,89.896 264.145,90.52 264.073,91.351 264.43,91.943   264.43,92.923 264.145,94.591 264.928,97.056 267.139,99.933 270.066,102.943 273.357,106.1 275.723,107.624 277.445,107.653   278.091,107.181 278.736,105.952 278.666,102.623 278.521,100.507 278.163,98.398 276.941,95.861 275.867,94.305 274.72,92.753   272.285,92.602 271.139,91.731 270.639,90.841 270.639,89.858 270.996,88.563 270.925,87.659 269.852,86.561 269.209,85.072   268.995,83.343 269.639,80.98 271.426,78.726 273.501,78.275 274.359,78.623 276.081,78.713 277.443,78.211 278.018,77.585   278.305,75.682 278.232,74.247 277.014,72.929 274.575,70.901 272.927,70.585 269.709,70.706 267.923,71.226 265.283,72.909   263.146,75.627 262.148,78 262.436,79.346 "/>
<polygon fill="none" points="280.963,90.814 281.682,93.141 282.186,96.763 282.762,100.005 282.762,103.946 282.329,104.337   282.257,105.779 282.473,106.759 282.977,107.2 283.553,107.867 283.913,109.07 283.913,111.421 284.13,112.932 284.634,113.981   284.922,114.58 285.355,114.266 285.859,113.646 286.508,112.795 287.302,112.623 287.952,112.91 288.529,113.503 289.035,114.249   289.469,114.542 289.83,114.077 289.902,113.316 290.409,112.468 290.48,110.339 290.552,108.741 291.421,107.351 292.217,106.341   292.289,105.047 291.783,102.933 291.783,101.109 292,99.051 292.289,94.938 293.229,91.108 294.824,88.32 294.97,87.402   294.462,87.038 293.23,86.243 292.65,85.577 291.566,84.778 291.348,83.797 290.48,83.371 289.542,83.782 288.674,84.57   287.952,85.126 286.941,85.16 286.292,84.954 285.21,84.08 284.562,83.419 283.698,83.676 282.906,84.84 281.755,86.015   280.747,86.731 279.741,87.521 279.812,88.806 "/>
<polygon fill="none" points="328.486,124.7 323.544,124.885 325.018,126.233 327.525,127.868 330.111,129.734 332.702,131.988   334.184,133.65 335.146,133.862 335.667,133.39 336.409,132.837 337.596,131.505 339.23,130.395 341.312,129.736 343.025,128.853   343.324,123.064 342.281,122.471 340.793,121.58 339.678,120.604 339.009,119.387 338.117,119.176 337.521,118.883 336.854,118.744   336.41,119.524 335.371,121.087 333.885,122.659 331.221,123.795 "/>
<polygon fill="none" points="341.535,133.893 340.27,134.611 340.122,136.232 340.865,136.988 342.13,137.89 343.843,138.167   344.439,138.85 344.439,140.47 343.621,141.178 342.876,141.499 343.844,142.639 345.932,144.765 348.77,148.425 350.189,149.872   351.91,152.088 353.107,154.544 354.381,155.92 357.457,153.248 360.537,151.733 366.79,151.412 364.227,150.13 361.139,147.928   355.656,143.447 349.516,138.374 346.23,135.191 344.74,133.677 343.322,133.396 "/>
<polygon fill="none" points="206.618,194.265 205.859,195.156 205.998,196.565 206.411,197.899 207.444,199.456 207.79,196.487   208.341,193.296 208.963,190.623 209.584,188.319 209.377,187.132 208.341,186.544 206.894,186.254 206.273,186.331   206.136,187.147 206.549,187.59 207.514,189.144 207.651,191.591 207.169,193.003 "/>
<path fill="none" d="M316.559,99.248l0.733,0.514l0.881,1.047l0.147,1.909l-0.44,1.085v1.071l0.515,1.365l1.543,0.723l1.691,0.721  l1.398,0.96l0.811,1.895l0.516,1.904l-0.222,1.54l-0.515,1.163l0.146,1.223l0.517,1.291l0.959,0.745l1.105,0.511l1.919-0.506  l2.07-1.893l1.998-3.584l0.813-2.558l-0.371-2.143l-1.035-0.664l-0.443-1.218l-0.148-2.224l-0.592-2.135l-1.258-1.116l-1.994-0.327  l-2.213,0.14l-1.253,0.265l-1.326-0.574l-0.661-0.748l0.146-1.077l0.811-1.174l1.842-1.128l1.476-0.735l1.992-0.751l0.812-0.792  l0.296-1.161l-1.107-0.887l-1.697-0.638l-1.697,0.206l-1.547,0.585l-1.473,0.123l-0.516-0.751c0,0-0.221-0.529-0.44-0.522  c-0.222,0.007-1.324,0.884-1.324,0.884l-1.688,1.507l-2.201,2.975l-0.367,1.617l0.365,0.907L316.559,99.248z"/>
<polygon fill="none" points="351.311,127.756 351.536,130.147 352.059,131.527 353.182,133.283 354.906,135.338 356.632,136.776   358.584,137.205 359.484,136.492 359.712,135.248 359.26,134.327 358.584,133.488 357.908,132.185 357.834,130.716 357.982,129.164   358.057,128.156 357.457,127.008 356.631,126.716 355.807,125.805 355.281,124.423 354.532,122.97 353.633,121.598 352.734,120.846   352.061,120.938 351.012,121.812 350.264,123.683 350.488,126.305 "/>
<polygon fill="none" points="301.216,111.124 300.343,111.833 298.816,111.643 298.09,111.586 298.309,112.037 299.035,112.551   299.689,112.763 301.725,112.864 303.4,111.754 303.982,110.595 302.744,110.932 "/>
<polygon fill="none" points="302.963,91.181 301.506,91.913 300.125,91.957 299.18,92.596 298.454,93.379 297.072,96.086   296.131,99.615 295.84,103.503 296.131,106.082 296.566,106.755 297.293,107.04 298.816,106.618 300.924,105.722 303.254,103.829   306.388,99.773 308.943,96.721 310.626,94.225 310.626,92.697 310.261,91.486 310.48,89.875 310.771,89.484 310.261,88.736   309.822,88.063 309.969,87.141 310.262,85.986 311.286,85.035 311.066,83.82 310.553,82.997 310.261,82.701 310.041,81.563   310.041,80.188 310.699,79.019 311.943,77.982 312.456,77.353 312.456,75.289 310.992,72.82 308.066,70.331 305.879,69.421   301.872,69.496 299.181,70.435 296.785,72.351 296.204,74.046 295.984,75.88 296.422,77.082 297.801,77.87 298.963,77.829   300.854,77.686 302.018,77.493 303.255,78.211 304.641,79.154 305.369,80.807 305.732,82.549 305.441,84.085 304.057,86.266   303.546,87.275 303.691,88.414 303.691,90.091 "/>
<polygon fill="none" points="312.234,111.068 311.504,111.469 311.357,112.543 310.846,114.542 309.822,115.713 309.311,116.719   308.945,117.186 308.799,117.8 309.676,118.008 311.211,117.895 312.895,117.396 314.359,116.673 315.534,114.885 315.973,113.726   316.34,112.263 316.413,110.271 315.753,109.677 315.167,109.692 314.066,110.256 313.26,110.889 "/>
<polygon fill="none" points="310.918,103.996 309.748,105.174 309.163,105.573 308.725,106.195 309.018,107.028 310.407,106.914   311.87,106.11 313.334,105.305 313.334,103.317 312.893,102.795 311.941,102.821 "/>
<polygon fill="none" points="385.68,191.944 386.139,192.567 387.357,193.813 388.123,194.123 388.732,193.419 388.658,192.248   388.352,191.39 388.275,190.452 388.658,189.202 388.963,186.624 388.811,185.297 388.352,185.378 387.589,186.239 386.673,187.102   386.596,189.053 385.984,190.071 385.527,190.931 "/>
<path fill="none" d="M287.091,325.935c-39.178-1.364-70.305-45.607-70.305-98.843l0,0  C216.786,280.329,247.913,324.572,287.091,325.935c19.408,0.678,37.194-9.248,50.376-25.965  C324.285,316.687,306.499,326.611,287.091,325.935z"/>
<polygon fill="none" points="371.93,187.012 372.232,186.389 372.158,185.457 370.494,185.542 369.359,185.781 368.527,186.639   368.527,187.881 369.057,189.277 369.812,193.701 370.341,196.73 370.493,199.215 371.25,199.292 371.779,197.97 372.232,196.337   372.611,195.015 372.082,194.473 371.174,192.688 370.568,190.436 370.796,188.338 "/>
<polygon fill="none" points="382.859,175.271 383.699,175.733 384.46,176.74 384.079,178.225 382.785,179.247 381.339,179.413   380.35,178.951 379.895,179.733 380.273,180.587 381.566,181.437 383.395,181.27 384.538,180.328 385.604,178.605 385.527,176.265   384.46,175.258 "/>
<polygon fill="none" points="364.229,158.584 363.852,159.209 363.702,160.141 362.947,160.616 361.744,161.172 361.066,161.955   361.895,161.868 362.572,162.325 363.175,163.249 362.874,163.872 362.121,164.035 360.54,164.13 359.186,164.222 358.887,165.155   359.412,165.923 360.312,167.618 362.12,171.321 363.85,174.95 364.755,177.503 365.132,178.974 365.961,179.202 366.414,178.655   367.547,177.251 368.377,176.468 369.736,175.915 371.174,175.515 371.25,173.339 372.082,172.478 373.445,172.544 372.915,171.538   372.385,169.521 372.385,167.5 373.066,166.794 374.961,166.853 375.796,167.622 377.085,169.011 377.54,170.563 377.768,172.352   378.756,171.721 380.654,171.236 382.102,170.99 382.787,171.296 384.689,171.279 384.539,169.877 382.938,167.631 380.807,165.159   378.375,162.459 375.87,160.619 372.764,159.024 369.812,158.438 367.699,157.998 365.436,158.259 "/>
<polygon fill="none" points="392.1,218.575 391.411,215.993 390.035,214.036 388.889,213.095 387.592,212.624 385.836,210.356   384.54,208.248 382.862,207.154 381.569,205.983 380.352,205.593 379.135,204.58 378.528,203.645 378.377,202.244 378.148,201.387   377.237,201.465 376.176,201.699 375.264,203.022 373.977,205.044 373.143,206.909 372.84,208.386 372.916,209.708 373.446,210.02   374.203,209.399 375.643,208.779 377.008,208.937 378.68,209.329 381.188,210.736 384.157,214.018 387.666,218.789 390.416,223.645   392.021,228.107 392.71,230.691 393.325,230.542 392.559,220.921 "/>
<path fill="none" d="M337.467,155.901c14.032,17.991,22.847,43.605,22.848,72.195C360.314,199.506,351.499,173.892,337.467,155.901z  "/>
<polygon fill="none" points="372.611,260.154 371.477,258.97 370.948,259.352 370.721,261.057 368.83,267.238 365.734,275.174   362.043,283.471 357.834,291.661 361.365,288.416 365.886,283.17 370.266,277.52 373.143,272.291 374.884,267.812 374.96,265.091   374.354,262.516 "/>
<polygon fill="none" points="389.04,230.977 386.291,225.572 382.786,221.186 380.273,219.146 378.678,218.361 377.615,218.436   376.628,219.364 375.262,219.436 374.883,220.523 374.959,222.467 375.414,229.238 375.035,236.936 374.275,243.307   373.518,249.361 372.914,252.075 374.809,251.4 377.234,251.2 379.211,251.693 380.883,253.352 382.025,255.861 382.633,257.508   384.004,256.592 385.3,254.661 386.979,250.549 388.887,245.732 390.339,240.518 390.339,236.533 390.033,234.188 "/>
<path fill="none" d="M309.018,344.447l-1.096-0.885l-1.314-0.814l-3.136-0.275l-2.11,0.07l-2.473,0.662l-1.887,1.372l-1.742,1.679  l-1.304,2.306l0.146,1.45l0.578,0.709l0.799,1.022l0.361,1.462l-0.072,1.365l-0.361,0.82l-0.219,1.208l0.508,0.479l0.437,0.856  l0.435,2.149l-0.435,1.121l-0.726,1.108l-1.016,0.183l-0.58,0.584v1.062l0.291,1.458l1.015,0.96l1.45,1.589l2.25,1.629l1.744,0.157  l1.674-0.836l2.259-2.259l2.553-2.629l0.877-2.633l0.292-2.964l-0.292-2.532l-0.731-1.787l-1.312-1.582l-0.656-2.773l0.364-1.205  c0,0,1.021-1.408,1.24-1.399c0.219,0.01,1.46-0.396,1.46-0.396l0.512,0.173l0.877,0.417l0.512,0.021l0.072-0.912l-0.438-1.088  L309.018,344.447z"/>
<polygon fill="none" points="210.619,267.908 207.927,259.845 207.031,256.419 205.172,258.095 203.657,260.441 203.45,263.773   204.208,267.195 206.479,271.688 210.827,278.457 215.531,284.359 219.552,288.621 214.144,276.596 "/>
<polygon fill="none" points="192.408,217.787 195.487,212.848 198.228,209.897 201.179,208.496 202.692,208.425 203.517,208.945   204.48,209.317 205.583,209.245 205.72,207.911 205.239,206.65 204.55,204.722 203.381,202.942 201.937,201.313 200.631,201.462   200.494,203.239 200.356,204.053 199.876,204.423 199.396,205.459 198.162,205.754 196.243,207.083 194.736,208.929   193.368,211.143 191.864,212.542 191.181,212.614 189.747,213.568 188.724,216.443 187.565,222.928 187.292,229.27 189.813,222.13   "/>
<polygon fill="none" points="323.545,331.53 322.809,331.504 321.482,332.224 318.395,333.566 313.333,335.139 309.309,336.135   309.309,336.67 311.578,339.123 313.7,341.575 316.12,338.15 318.836,335.496 321.631,334.297 323.838,333.688 323.691,332.916 "/>
<polygon fill="none" points="191.591,190.166 191.454,192.013 191.113,192.678 191.113,193.712 191.386,194.523 192.137,194.522   193.231,193.78 194.052,192.522 194.12,191.413 193.642,190.306 193.231,190.16 193.094,188.24 192.548,187.282 191.454,186.106   190.976,186.773 190.976,187.806 191.113,189.356 "/>
<polygon fill="none" points="205.515,249.725 204.964,245.046 203.725,237.027 203.45,224.727 203.725,219.541 203.381,218.575   202.074,218.198 200.768,217.008 198.367,218.922 194.872,222.307 191.658,227.752 189.678,233.643 189.61,238.586 190.839,243.027   193.367,249.707 195.42,253.504 196.379,254.553 197.132,254.342 197.064,253.307 197.613,251.688 199.465,249.344 201.8,248.34   203.863,248.812 "/>
<polygon fill="none" points="195.213,181.504 196.035,182.239 197.68,182.451 198.64,181.927 198.983,181.259 199.189,180.148   198.367,180.375 197.407,180.456 196.242,180.167 195.556,179.58 195.283,179.212 195.009,178.032 195.694,177.509 196.448,176.69   195.626,176.401 194.668,176.704 194.052,177.522 193.982,178.409 194.05,179.96 "/>
<polygon fill="none" points="279.955,362.148 278.877,361.115 278.23,359.95 278.159,357.979 278.59,356.938 279.236,355.906   278.95,354.758 278.732,353.008 278.95,351.426 279.523,350.543 280.458,349.368 280.387,348.457 279.596,346.683 277.8,344.338   276.293,342.537 273.855,341.609 270.35,341.017 267.634,341.288 266.707,342.081 265.352,343.535 264.568,344.484 264.568,345.463   265.139,345.562 266.279,345.157 267.277,345.499 268.277,346.22 269.277,348.3 269.206,350.335 268.421,351.736 266.922,354.087   266.708,357.852 267.421,361.581 268.992,364.144 271.137,366.358 273.784,368.295 275.576,368.457 276.796,368.06 279.021,366.043   280.459,364.67 280.745,363.47 280.673,362.559 "/>
<polygon fill="none" points="262.576,333.703 260.158,332.71 256.607,331.3 254.198,329.858 253.064,329.141 251.861,328.872   251.507,329.835 251.437,331.409 252.145,331.36 253.984,332.18 255.898,333.453 257.884,334.883 259.943,337.295 260.869,339.139   261.296,339.381 265.639,334.8 "/>
</g>
</svg>
